<svg xmlns="http://www.w3.org/2000/svg" width="29" height="20" viewBox="0 0 29 20"><g><g opacity=".2"><path d="M6.201 7.197c3.402 0 6.16 2.813 6.16 6.284 0 3.47-2.758 6.283-6.16 6.283s-6.16-2.813-6.16-6.283l-.027-.898C.014 5.642 5.529.015 12.334.015v3.591c-2.351 0-4.561.934-6.223 2.629-.32.327-.612.674-.875 1.038a6.17 6.17 0 0 1 .965-.076zm15.84 0c3.401 0 6.159 2.813 6.159 6.284 0 3.47-2.758 6.283-6.16 6.283s-6.16-2.813-6.16-6.283l-.027-.898c0-6.941 5.516-12.568 12.32-12.568v3.591c-2.351 0-4.56.934-6.223 2.629a9.12 9.12 0 0 0-.875 1.038 6.17 6.17 0 0 1 .965-.076z"/></g></g></svg>