<svg xmlns="http://www.w3.org/2000/svg" width="120" height="120" viewBox="0 0 120 120"><defs><clipPath id="ic96a"><path fill="#fff" d="M60 0c33.137 0 60 26.863 60 60s-26.863 60-60 60S0 93.137 0 60 26.863 0 60 0z"/></clipPath></defs><g><g><path fill="#dbdfe1" d="M60 0c33.137 0 60 26.863 60 60s-26.863 60-60 60S0 93.137 0 60 26.863 0 60 0z"/><path fill="none" stroke="#fff" stroke-linecap="round" stroke-linejoin="round" stroke-miterlimit="20" stroke-width="56" d="M60 0c33.137 0 60 26.863 60 60s-26.863 60-60 60S0 93.137 0 60 26.863 0 60 0z" clip-path="url(&quot;#ic96a&quot;)"/></g><g opacity=".3"><g><text dominant-baseline="text-before-edge" style="text-transform:uppercase;line-height:65px" fill="#141414" font-family="'VinnytsiaSansReg','VinnytsiaSansReg'" font-size="13" font-style="none" font-weight="400" transform="translate(11 11)"><tspan style="font-kerning:normal" letter-spacing=".39">услуги услуги услуги услуги</tspan></text></g></g></g></svg>