<svg version="1.1" xmlns="http://www.w3.org/2000/svg" xmlns:xlink="http://www.w3.org/1999/xlink" x="0px" y="0px" viewBox="0 0 511.521 511.521" style="enable-background:new 0 0 511.521 511.521;" xml:space="preserve">
	<symbol id="icon-arrow-up"  x="0px" y="0px" viewBox="0 0 511.521 511.521" style="enable-background:new 0 0 511.521 511.521;" xml:space="preserve"><g><g><path d="M400.817,178.731l-128-170.667c-8.043-10.752-26.091-10.752-34.133,0l-128,170.667c-4.843,6.464-5.611,15.104-2.005,22.336c3.627,7.232,10.987,11.797,19.072,11.797h64v85.333c0,11.776,9.536,21.333,21.333,21.333h85.333c11.797,0,21.333-9.557,21.333-21.333v-85.333h64c8.085,0,15.467-4.565,19.093-11.797C406.449,193.835,405.681,185.195,400.817,178.731z" fill="#FFFFFF"/></g></g><g><g><path d="M298.421,340.855h-85.333c-11.797,0-21.333,9.536-21.333,21.333s9.536,21.333,21.333,21.333h85.333c11.797,0,21.333-9.536,21.333-21.333S310.218,340.855,298.421,340.855z" fill="#FFFFFF"/></g></g><g><g><path d="M298.421,404.855h-85.333c-11.797,0-21.333,9.536-21.333,21.333s9.536,21.333,21.333,21.333h85.333c11.797,0,21.333-9.536,21.333-21.333S310.218,404.855,298.421,404.855z" fill="#FFFFFF"/></g></g><g><g><path d="M298.421,468.855h-85.333c-11.797,0-21.333,9.536-21.333,21.333s9.536,21.333,21.333,21.333h85.333c11.797,0,21.333-9.536,21.333-21.333S310.218,468.855,298.421,468.855z" fill="#FFFFFF"/></g></g></symbol>
	<symbol id="icon-at-blue"  x="0px" y="0px" viewBox="0 0 330.001 330.001" style="enable-background:new 0 0 330.001 330.001;" xml:space="preserve"><path id="XMLID_20_" d="M165.001,0c-90.981,0-165,74.018-165,164.997c0,90.983,74.019,165.004,165,165.004c8.284,0,15-6.716,15-15c0-8.284-6.716-15-15-15c-74.44,0-135-60.563-135-135.004C30,90.56,90.561,30,165.001,30s135,60.56,135,134.997v37.507c0,12.407-10.096,22.5-22.504,22.5c-12.406,0-22.499-10.093-22.499-22.5v-37.507c0-49.626-40.372-90-89.997-90c-49.626,0-89.999,40.374-89.999,90c0,49.63,40.373,90.007,89.999,90.007c25.927,0,49.323-11.026,65.762-28.63c8.706,16.978,26.379,28.63,46.734,28.63c28.951,0,52.504-23.551,52.504-52.5v-37.507C330,74.018,255.982,0,165.001,0z M165.001,225.004c-33.084,0-59.999-26.919-59.999-60.007c0-33.084,26.915-60,59.999-60c33.083,0,59.997,26.916,59.997,60C224.998,198.085,198.083,225.004,165.001,225.004z" fill="#1375f8"/></symbol>
	<symbol id="chevron-right-gray"  x="0px" y="0px" viewBox="0 0 451.846 451.847" style="enable-background:new 0 0 451.846 451.847;" xml:space="preserve"><g><path d="M345.441,248.292L151.154,442.573c-12.359,12.365-32.397,12.365-44.75,0c-12.354-12.354-12.354-32.391,0-44.744L278.318,225.92L106.409,54.017c-12.354-12.359-12.354-32.394,0-44.748c12.354-12.359,32.391-12.359,44.75,0l194.287,194.284c6.177,6.18,9.262,14.271,9.262,22.366C354.708,234.018,351.617,242.115,345.441,248.292z" fill="#AAAAAA"/></g></symbol>
	<symbol id="chevron-right-white"  x="0px" y="0px" viewBox="0 0 451.846 451.847" style="enable-background:new 0 0 451.846 451.847;" xml:space="preserve"><g><path d="M345.441,248.292L151.154,442.573c-12.359,12.365-32.397,12.365-44.75,0c-12.354-12.354-12.354-32.391,0-44.744L278.318,225.92L106.409,54.017c-12.354-12.359-12.354-32.394,0-44.748c12.354-12.359,32.391-12.359,44.75,0l194.287,194.284c6.177,6.18,9.262,14.271,9.262,22.366C354.708,234.018,351.617,242.115,345.441,248.292z" fill="#FFFFFF"/></g></symbol>
	<symbol id="icon-check"  x="0px" y="0px" viewBox="0 0 352.62 352.62" style="enable-background:new 0 0 352.62 352.62;" xml:space="preserve"><g><path d="M337.222,22.952c-15.912-8.568-33.66,7.956-44.064,17.748c-23.867,23.256-44.063,50.184-66.708,74.664c-25.092,26.928-48.348,53.856-74.052,80.173c-14.688,14.688-30.6,30.6-40.392,48.96c-22.032-21.421-41.004-44.677-65.484-63.648c-17.748-13.464-47.124-23.256-46.512,9.18c1.224,42.229,38.556,87.517,66.096,116.28c11.628,12.24,26.928,25.092,44.676,25.704c21.42,1.224,43.452-24.48,56.304-38.556c22.645-24.48,41.005-52.021,61.812-77.112c26.928-33.048,54.468-65.485,80.784-99.145C326.206,96.392,378.226,44.983,337.222,22.952z M26.937,187.581c-0.612,0-1.224,0-2.448,0.611c-2.448-0.611-4.284-1.224-6.732-2.448l0,0C19.593,184.52,22.653,185.132,26.937,187.581z" fill="#71af34"/></g></symbol>
	<symbol id="icon-cross"   x="0px" y="0px" viewBox="0 0 415.188 415.188" style="enable-background:new 0 0 415.188 415.188;" xml:space="preserve"><path d="M412.861,78.976c3.404-6.636,2.831-14.159-0.15-20.404c0.84-7.106-1.02-14.321-7.746-19.855c-6.262-5.151-12.523-10.305-18.781-15.457c-11.005-9.055-28.237-11.913-38.941,0c-48.619,54.103-99.461,105.856-152.167,155.725c-39.185-36.605-78.846-72.713-118.223-108.868c-13.82-12.693-33.824-8.71-42.519,6.411c-12.665,6.286-22.931,14.481-31.42,28.468c-4.042,6.664-3.727,15.076,0,21.764c25.421,45.578,74.557,85.651,114.957,122.529c-5.406,4.839-10.772,9.724-16.287,14.461c-54.43,46.742-91.144,76.399-23.029,124.325c0.919,0.647,1.856,0.504,2.789,0.882c1.305,0.602,2.557,1.026,4.004,1.264c0.45,0.017,0.87,0.093,1.313,0.058c1.402,0.114,2.774,0.471,4.195,0.192c36.621-7.18,70.677-35.878,101.576-67.48c30.1,29.669,62.151,58.013,97.395,74.831c8.391,4.005,18.395,1.671,24.855-3.931c10.832,0.818,20.708-5.913,25.665-15.586c0.734-0.454,1.207-0.713,2.002-1.21c15.748-9.838,17.187-29.431,5.534-42.936c-26.313-30.492-54.284-59.478-82.798-87.95C316.426,196.043,380.533,141.939,412.861,78.976z" fill="#e32b2b"/></symbol>
	<symbol id="icon-facebook"  x="0px" y="0px"	 viewBox="0 0 512 512" style="enable-background:new 0 0 512 512;" xml:space="preserve"><path style="fill:#385C8E;" d="M134.941,272.691h56.123v231.051c0,4.562,3.696,8.258,8.258,8.258h95.159	c4.562,0,8.258-3.696,8.258-8.258V273.78h64.519c4.195,0,7.725-3.148,8.204-7.315l9.799-85.061c0.269-2.34-0.472-4.684-2.038-6.44	c-1.567-1.757-3.81-2.763-6.164-2.763h-74.316V118.88c0-16.073,8.654-24.224,25.726-24.224c2.433,0,48.59,0,48.59,0	c4.562,0,8.258-3.698,8.258-8.258V8.319c0-4.562-3.696-8.258-8.258-8.258h-66.965C309.622,0.038,308.573,0,307.027,0	c-11.619,0-52.006,2.281-83.909,31.63c-35.348,32.524-30.434,71.465-29.26,78.217v62.352h-58.918c-4.562,0-8.258,3.696-8.258,8.258	v83.975C126.683,268.993,130.379,272.691,134.941,272.691z"/></symbol>
	<symbol id="icon-instagram"  x="0px" y="0px" viewBox="0 0 512 512" style="enable-background:new 0 0 512 512;" xml:space="preserve"><linearGradient id="symbolID_1_" gradientUnits="userSpaceOnUse" x1="-46.0041" y1="634.1208" x2="-32.9334" y2="647.1917" gradientTransform="matrix(32 0 0 -32 1519 20757)"><stop offset="0" style="stop-color:#FFC107"/><stop offset="0.507" style="stop-color:#F44336"/><stop offset="0.99" style="stop-color:#9C27B0"/></linearGradient><path style="fill:url(#symbolID_1_);" d="M352,0H160C71.648,0,0,71.648,0,160v192c0,88.352,71.648,160,160,160h192c88.352,0,160-71.648,160-160V160C512,71.648,440.352,0,352,0z M464,352c0,61.76-50.24,112-112,112H160c-61.76,0-112-50.24-112-112V160C48,98.24,98.24,48,160,48h192c61.76,0,112,50.24,112,112V352z"/><linearGradient id="symbolID_2_" gradientUnits="userSpaceOnUse" x1="-42.2971" y1="637.8279" x2="-36.6404" y2="643.4846" gradientTransform="matrix(32 0 0 -32 1519 20757)"><stop offset="0" style="stop-color:#FFC107"/><stop offset="0.507" style="stop-color:#F44336"/><stop offset="0.99" style="stop-color:#9C27B0"/></linearGradient><path style="fill:url(#symbolID_2_);" d="M256,128c-70.688,0-128,57.312-128,128s57.312,128,128,128s128-57.312,128-128S326.688,128,256,128z M256,336c-44.096,0-80-35.904-80-80c0-44.128,35.904-80,80-80s80,35.872,80,80C336,300.096,300.096,336,256,336z"/><linearGradient id="symbolID_3_" gradientUnits="userSpaceOnUse" x1="-35.5456" y1="644.5793" x2="-34.7919" y2="645.3331" gradientTransform="matrix(32 0 0 -32 1519 20757)"><stop offset="0" style="stop-color:#FFC107"/><stop offset="0.507" style="stop-color:#F44336"/><stop offset="0.99" style="stop-color:#9C27B0"/></linearGradient><circle style="fill:url(#symbolID_3_);" cx="393.6" cy="118.4" r="17.056"/></symbol>
	<symbol id="icon-vk"  x="0px" y="0px" viewBox="0 0 304.36 304.36" style="enable-background:new 0 0 304.36 304.36;" xml:space="preserve"><path style="fill-rule:evenodd;clip-rule:evenodd;" d="M261.945,175.576c10.096,9.857,20.752,19.131,29.807,29.982c4,4.822,7.787,9.798,10.684,15.394c4.105,7.955,0.387,16.709-6.746,17.184l-44.34-0.02c-11.436,0.949-20.559-3.655-28.23-11.474c-6.139-6.253-11.824-12.908-17.727-19.372c-2.42-2.642-4.953-5.128-7.979-7.093c-6.053-3.929-11.307-2.726-14.766,3.587c-3.523,6.421-4.322,13.531-4.668,20.687c-0.475,10.441-3.631,13.186-14.119,13.664c-22.414,1.057-43.686-2.334-63.447-13.641c-17.422-9.968-30.932-24.04-42.691-39.971C34.828,153.482,17.295,119.395,1.537,84.353C-2.01,76.458,0.584,72.22,9.295,72.07c14.465-0.281,28.928-0.261,43.41-0.02c5.879,0.086,9.771,3.458,12.041,9.012c7.826,19.243,17.402,37.551,29.422,54.521c3.201,4.518,6.465,9.036,11.113,12.216c5.142,3.521,9.057,2.354,11.476-3.374c1.535-3.632,2.207-7.544,2.553-11.434c1.146-13.383,1.297-26.743-0.713-40.079c-1.234-8.323-5.922-13.711-14.227-15.286c-4.238-0.803-3.607-2.38-1.555-4.799c3.564-4.172,6.916-6.769,13.598-6.769h50.111c7.889,1.557,9.641,5.101,10.721,13.039l0.043,55.663c-0.086,3.073,1.535,12.192,7.07,14.226c4.43,1.448,7.35-2.096,10.008-4.905c11.998-12.734,20.561-27.783,28.211-43.366c3.395-6.852,6.314-13.968,9.143-21.078c2.096-5.276,5.385-7.872,11.328-7.757l48.229,0.043c1.43,0,2.877,0.021,4.262,0.258c8.127,1.385,10.354,4.881,7.844,12.817c-3.955,12.451-11.65,22.827-19.174,33.251c-8.043,11.129-16.645,21.877-24.621,33.072C252.26,161.544,252.842,166.697,261.945,175.576L261.945,175.576z M261.945,175.576" fill="#4f78a3"/></symbol>
	<symbol id="icon-telegram" enable-background="new 0 0 24 24" viewBox="0 0 24 24"><path d="m9.417 15.181-.397 5.584c.568 0 .814-.244 1.109-.537l2.663-2.545 5.518 4.041c1.012.564 1.725.267 1.998-.931l3.622-16.972.001-.001c.321-1.496-.541-2.081-1.527-1.714l-21.29 8.151c-1.453.564-1.431 1.374-.247 1.741l5.443 1.693 12.643-7.911c.595-.394 1.136-.176.691.218z" fill="#FFFFFF"/></symbol>
	<symbol id="icon-whatsapp"  x="0px" y="0px" viewBox="0 0 308 308" style="enable-background:new 0 0 308 308;" xml:space="preserve"><g><path d="M227.904,176.981c-0.6-0.288-23.054-11.345-27.044-12.781c-1.629-0.585-3.374-1.156-5.23-1.156c-3.032,0-5.579,1.511-7.563,4.479c-2.243,3.334-9.033,11.271-11.131,13.642c-0.274,0.313-0.648,0.687-0.872,0.687c-0.201,0-3.676-1.431-4.728-1.888c-24.087-10.463-42.37-35.624-44.877-39.867c-0.358-0.61-0.373-0.887-0.376-0.887c0.088-0.323,0.898-1.135,1.316-1.554c1.223-1.21,2.548-2.805,3.83-4.348c0.607-0.731,1.215-1.463,1.812-2.153c1.86-2.164,2.688-3.844,3.648-5.79l0.503-1.011c2.344-4.657,0.342-8.587-0.305-9.856c-0.531-1.062-10.012-23.944-11.02-26.348c-2.424-5.801-5.627-8.502-10.078-8.502c-0.413,0,0,0-1.732,0.073c-2.109,0.089-13.594,1.601-18.672,4.802c-5.385,3.395-14.495,14.217-14.495,33.249c0,17.129,10.87,33.302,15.537,39.453c0.116,0.155,0.329,0.47,0.638,0.922c17.873,26.102,40.154,45.446,62.741,54.469c21.745,8.686,32.042,9.69,37.896,9.69c0.001,0,0.001,0,0.001,0c2.46,0,4.429-0.193,6.166-0.364l1.102-0.105c7.512-0.666,24.02-9.22,27.775-19.655c2.958-8.219,3.738-17.199,1.77-20.458C233.168,179.508,230.845,178.393,227.904,176.981z" fill="#FFFFFF"/><path d="M156.734,0C73.318,0,5.454,67.354,5.454,150.143c0,26.777,7.166,52.988,20.741,75.928L0.212,302.716c-0.484,1.429-0.124,3.009,0.933,4.085C1.908,307.58,2.943,308,4,308c0.405,0,0.813-0.061,1.211-0.188l79.92-25.396c21.87,11.685,46.588,17.853,71.604,17.853C240.143,300.27,308,232.923,308,150.143C308,67.354,240.143,0,156.734,0z M156.734,268.994c-23.539,0-46.338-6.797-65.936-19.657c-0.659-0.433-1.424-0.655-2.194-0.655c-0.407,0-0.815,0.062-1.212,0.188l-40.035,12.726l12.924-38.129c0.418-1.234,0.209-2.595-0.561-3.647c-14.924-20.392-22.813-44.485-22.813-69.677c0-65.543,53.754-118.867,119.826-118.867c66.064,0,119.812,53.324,119.812,118.867C276.546,215.678,222.799,268.994,156.734,268.994z" fill="#FFFFFF"/></g></symbol>
	<symbol id="icon-metro"  x="0px" y="0px" viewBox="0 0 93.08 93.08" style="enable-background:new 0 0 93.08 93.08;" xml:space="preserve"><polygon points="91.405,67.947 85.546,67.947 67.369,18.558 46.539,48.683 24.275,18.916 7.534,67.947 1.675,67.947 0,74.522 22.242,74.522 30.973,50.486 46.803,71.626 46.898,71.759 46.995,71.626 62.107,50.486 70.838,74.522 93.08,74.522 " fill="#1375f8"/></symbol>
	<symbol id="icon-house"  x="0px" y="0px" viewBox="0 0 306.773 306.773" style="enable-background:new 0 0 306.773 306.773;" xml:space="preserve"><g><path style="fill:#A8A8A8" d="M302.93,149.794c5.561-6.116,5.024-15.49-1.199-20.932L164.63,8.898c-6.223-5.442-16.2-5.328-22.292,0.257L4.771,135.258c-6.092,5.585-6.391,14.947-0.662,20.902l3.449,3.592c5.722,5.955,14.971,6.665,20.645,1.581l10.281-9.207v134.792c0,8.27,6.701,14.965,14.965,14.965h53.624c8.264,0,14.965-6.695,14.965-14.965v-94.3h68.398v94.3c-0.119,8.264,5.794,14.959,14.058,14.959h56.828c8.264,0,14.965-6.695,14.965-14.965V154.024c0,0,2.84,2.488,6.343,5.567c3.497,3.073,10.842,0.609,16.403-5.513L302.93,149.794z"/></g></symbol>
	<symbol id="icon-phone-blue"  x="0px" y="0px" viewBox="0 0 480.56 480.56" style="enable-background:new 0 0 480.56 480.56;" xml:space="preserve"><path d="M365.354,317.9c-15.7-15.5-35.3-15.5-50.9,0c-11.9,11.8-23.8,23.6-35.5,35.6c-3.2,3.3-5.9,4-9.8,1.8c-7.7-4.2-15.9-7.6-23.3-12.2c-34.5-21.7-63.4-49.6-89-81c-12.7-15.6-24-32.3-31.9-51.1c-1.6-3.8-1.3-6.3,1.8-9.4c11.9-11.5,23.5-23.3,35.2-35.1c16.3-16.4,16.3-35.6-0.1-52.1c-9.3-9.4-18.6-18.6-27.9-28c-9.6-9.6-19.1-19.3-28.8-28.8c-15.7-15.3-35.3-15.3-50.9,0.1c-12,11.8-23.5,23.9-35.7,35.5c-11.3,10.7-17,23.8-18.2,39.1c-1.9,24.9,4.2,48.4,12.8,71.3c17.6,47.4,44.4,89.5,76.9,128.1c43.9,52.2,96.3,93.5,157.6,123.3c27.6,13.4,56.2,23.7,87.3,25.4c21.4,1.2,40-4.2,54.9-20.9c10.2-11.4,21.7-21.8,32.5-32.7c16-16.2,16.1-35.8,0.2-51.8C403.554,355.9,384.454,336.9,365.354,317.9z" fill="#1375f8"/><path d="M346.254,238.2l36.9-6.3c-5.8-33.9-21.8-64.6-46.1-89c-25.7-25.7-58.2-41.9-94-46.9l-5.2,37.1c27.7,3.9,52.9,16.4,72.8,36.3C329.454,188.2,341.754,212,346.254,238.2z" fill="#1375f8"/><path d="M403.954,77.8c-42.6-42.6-96.5-69.5-156-77.8l-5.2,37.1c51.4,7.2,98,30.5,134.8,67.2c34.9,34.9,57.8,79,66.1,127.5l36.9-6.3C470.854,169.3,444.354,118.3,403.954,77.8z" fill="#1375f8"/></symbol>
	<symbol id="icon-phone-gray"   x="0px" y="0px" viewBox="0 0 512 512" style="enable-background:new 0 0 512 512;" xml:space="preserve"><path d="M492.557,400.56L392.234,300.238c-11.976-11.975-31.458-11.975-43.435,0l-26.088,26.088c-8.174,8.174-10.758,19.845-7.773,30.241l-9.843,9.843c-0.003,0.003-0.005,0.005-0.008,0.008c-6.99,6.998-50.523-3.741-103.145-56.363c-52.614-52.613-63.356-96.139-56.366-103.142c0-0.002,0.002-0.002,0.002-0.002l9.852-9.851c2.781,0.799,5.651,1.207,8.523,1.207c7.865,0,15.729-2.993,21.718-8.98l26.088-26.088c11.975-11.975,11.975-31.458,0-43.434L111.436,19.441c-5.8-5.8-13.513-8.994-21.716-8.994c-8.205,0-15.915,3.196-21.716,8.994l-26.09,26.09c-8.174,8.174-10.758,19.846-7.773,30.241c0,0-8.344,8.424-8.759,8.956c-27.753,30.849-32.96,79.418-14.561,137.487c18.017,56.857,56.857,117.088,109.367,169.595c52.508,52.508,112.739,91.348,169.596,109.367C312.624,508.414,333.991,512,353.394,512c31.813,0,58.337-9.648,77.35-28.66l5.474-5.474c2.74,0.788,5.602,1.213,8.532,1.213c8.205,0,15.917-3.196,21.716-8.994l26.09-26.09C504.531,432.02,504.531,412.536,492.557,400.56z M89.72,41.157l100.324,100.325l-26.074,26.102c0,0-0.005-0.005-0.014-0.014l-0.375-0.375l-49.787-49.787L63.631,67.247L89.72,41.157z M409.029,461.623c-0.002,0.002-0.003,0.003-0.005,0.005c-22.094,22.091-61.146,25.74-109.961,10.27c-52.252-16.558-108.065-52.714-157.156-101.806C92.814,321,56.658,265.189,40.101,212.936c-15.47-48.817-11.821-87.87,10.275-109.967l0.002-0.002l2.77-2.77l77.857,77.856l-7.141,7.141c-0.005,0.005-0.009,0.011-0.015,0.017c-29.585,29.622,5.963,96.147,56.378,146.562c37.734,37.734,84.493,67.14,118.051,67.14c11.284,0,21.076-3.325,28.528-10.778c0.003-0.003,0.005-0.005,0.008-0.008l7.133-7.133l77.857,77.856L409.029,461.623z M444.752,448.368L344.428,348.044l26.088-26.088L470.84,422.278C470.84,422.278,444.761,448.377,444.752,448.368z" fill="#929292"/><path d="M388.818,123.184c-29.209-29.209-68.042-45.294-109.344-45.293c-8.481,0-15.356,6.875-15.356,15.356c0,8.481,6.876,15.356,15.356,15.356c33.1-0.002,64.219,12.89,87.628,36.297c23.406,23.406,36.295,54.525,36.294,87.624c0,8.481,6.875,15.358,15.356,15.358c8.48,0,15.356-6.875,15.356-15.354C434.109,191.224,418.023,152.393,388.818,123.184z" fill="#929292"/><path d="M443.895,68.107C399.972,24.186,341.578-0.002,279.468,0c-8.481,0-15.356,6.876-15.356,15.356c0,8.481,6.876,15.356,15.356,15.356c53.907-0.002,104.588,20.992,142.709,59.111c38.118,38.118,59.111,88.799,59.11,142.706c0,8.481,6.875,15.356,15.356,15.356c8.48,0,15.356-6.875,15.356-15.354C512.001,170.419,487.813,112.027,443.895,68.107z" fill="#929292"/><path d="M333.737,178.26c-14.706-14.706-33.465-22.477-54.256-22.477c0,0-0.005,0-0.006,0c-8.481,0.002-15.356,6.876-15.354,15.358c0.002,8.481,6.878,15.356,15.358,15.354c0.002,0,0.003,0,0.005,0c12.644,0,23.593,4.536,32.539,13.481c8.819,8.82,13.481,20.075,13.479,32.544c-0.002,8.481,6.875,15.356,15.354,15.358h0.002c8.481,0,15.354-6.875,15.356-15.354C356.215,211.732,348.444,192.968,333.737,178.26z" fill="#929292"/></symbol>
	<symbol id="icon-placeholder-blue"  x="0px" y="0px" viewBox="0 0 487.724 487.724" style="enable-background:new 0 0 487.724 487.724;" xml:space="preserve"><g><g><path d="M236.925,0.124c-96.9,3.4-177.4,79-186.7,175.5c-1.9,19.3-0.8,38,2.6,55.9l0,0c0,0,0.3,2.1,1.3,6.1c3,13.4,7.5,26.4,13.1,38.6c19.5,46.2,64.6,123.5,165.8,207.6c6.2,5.2,15.3,5.2,21.6,0c101.2-84,146.3-161.3,165.9-207.7c5.7-12.2,10.1-25.1,13.1-38.6c0.9-3.9,1.3-6.1,1.3-6.1l0,0c2.3-12,3.5-24.3,3.5-36.9C438.425,84.724,347.525-3.776,236.925,0.124z M243.825,291.324c-52.2,0-94.5-42.3-94.5-94.5s42.3-94.5,94.5-94.5s94.5,42.3,94.5,94.5S296.025,291.324,243.825,291.324z" fill="#1375f8"/></g></g></symbol>
	<symbol id="icon-time-blue" viewBox="0 0 512 512"><path d="m256 0c-141.164062 0-256 114.835938-256 256s114.835938 256 256 256 256-114.835938 256-256-114.835938-256-256-256zm121.75 388.414062c-4.160156 4.160157-9.621094 6.253907-15.082031 6.253907-5.460938 0-10.925781-2.09375-15.082031-6.253907l-106.667969-106.664062c-4.011719-3.988281-6.25-9.410156-6.25-15.082031v-138.667969c0-11.796875 9.554687-21.332031 21.332031-21.332031s21.332031 9.535156 21.332031 21.332031v129.835938l100.417969 100.414062c8.339844 8.34375 8.339844 21.824219 0 30.164062zm0 0" fill="#1375f8"/></symbol>
	<symbol id="icon-time-gray"><path fill-rule="evenodd" d="M6.010,12.010 C2.701,12.010 0.010,9.319 0.010,6.009 C0.010,2.702 2.701,0.011 6.010,0.011 C9.318,0.011 12.010,2.702 12.010,6.009 C12.010,9.319 9.318,12.010 6.010,12.010 ZM6.010,0.695 C3.080,0.695 0.696,3.079 0.696,6.009 C0.696,8.939 3.080,11.324 6.010,11.324 C8.940,11.324 11.324,8.939 11.324,6.009 C11.324,3.079 8.940,0.695 6.010,0.695 ZM7.850,8.193 C7.762,8.193 7.675,8.160 7.607,8.092 L5.768,6.252 C5.703,6.189 5.667,6.100 5.667,6.009 L5.667,2.117 C5.667,1.927 5.821,1.775 6.010,1.775 C6.200,1.775 6.353,1.927 6.353,2.117 L6.353,5.868 L8.092,7.607 C8.226,7.740 8.226,7.958 8.092,8.092 C8.025,8.160 7.937,8.193 7.850,8.193 Z" fill="#9B9D9D"/></symbol>
	<symbol id="icon-user"  x="0px" y="0px" viewBox="0 0 512 512" style="enable-background:new 0 0 512 512;" xml:space="preserve"><g><g><path d="M437.02,330.98c-27.883-27.882-61.071-48.523-97.281-61.018C378.521,243.251,404,198.548,404,148C404,66.393,337.607,0,256,0S108,66.393,108,148c0,50.548,25.479,95.251,64.262,121.962c-36.21,12.495-69.398,33.136-97.281,61.018C26.629,379.333,0,443.62,0,512h40c0-119.103,96.897-216,216-216s216,96.897,216,216h40C512,443.62,485.371,379.333,437.02,330.98z M256,256c-59.551,0-108-48.448-108-108S196.449,40,256,40c59.551,0,108,48.448,108,108S315.551,256,256,256z" fill="#AAAAAA"/></g></g></symbol>
	<symbol id="icon-click" viewBox="-59 0 475 475.56972"><path d="m318.917969 187.566406h-.667969c-9.121094-.050781-17.933594 3.300782-24.71875 9.398438-5.492188-15.199219-19.449219-26.125-35.796875-26.125-10.019531.070312-19.589844 4.183594-26.53125 11.414062-6.382813-12.921875-19.1875-21.6875-33.910156-21.6875h-.710938c-7.890625-.121094-15.589843 2.445313-21.832031 7.273438v-92.121094c0-22.261719-17.332031-40.371094-38.414062-40.371094-21.058594 0-38.300782 18.097656-38.3125 40.34375l-.175782 182.773438-10.34375-12.5625c-9.070312-11.292969-22.421875-18.304688-36.867187-19.363282-14.148438-.96875-28.066407 3.953126-38.457031 13.609376l-9 7.457031c-2.902344 2.40625-3.730469 6.507812-1.992188 9.851562l87.503906 168.199219c16 30.738281 46.441406 49.914062 79.445313 49.914062h98.613281v-.085937c50 0 90.539062-43.386719 90.589844-96.660156.019531-23.835938-.070313-41.601563-.054688-56 .050782-38.523438.011719-52.738281-.085937-95.179688-.050781-22.210937-17.257813-40.078125-38.28125-40.078125zm22.25 135.203125c-.015625 14.402344-.039063 32.238281-.0625 56.074219-.042969 44.464844-33.609375 80.722656-74.824219 80.722656h-98.140625c-27.015625 0-52.019531-15.878906-65.25-41.300781l-84.527344-162.425781 4.171875-3.480469c.105469-.085937.207032-.1875.308594-.277344 7.175781-6.753906 16.832031-10.222656 26.664062-9.578125 10.050782.769532 19.324219 5.683594 25.609376 13.5625l24.488281 29.796875c2.140625 2.613281 5.695312 3.59375 8.875 2.457031 3.179687-1.136718 5.304687-4.152343 5.304687-7.527343l.144532-205.09375c.007812-13.429688 10.164062-24.355469 22.414062-24.355469s22.40625 10.9375 22.40625 24.375v123.660156c0 .429688-.019531.863282-.019531 1.300782 0 .1875.019531.378906.019531.5625v52.871093c0 4.417969 3.582031 8 8 8s8-3.582031 8-8v-54.464843c0-12.957032 9.898438-23.082032 21.832031-23.082032h.710938c12.257812 0 22.457031 10.683594 22.457031 24.121094v48.378906c0 4.417969 3.582031 8 8 8s8-3.582031 8-8v-37.957031c0-13.441406 9.710938-24.375 22.035156-24.375 12.253906 0 21.964844 10.929687 21.964844 24.375v35.808594c0 4.417969 3.582031 8 8 8s8-3.582031 8-8v-19.390625c0-13.441406 10.242188-23.960938 22.5-23.960938h.667969c12.226562 0 22.191406 10.699219 22.222656 24.097656.097656 42.410157.078125 56.609376.027344 95.105469zm0 0" fill="#FFFFFF"/><path d="m72.609375 79.171875c4.417969 0 8-3.582031 8-8 .128906-30.527344 24.914063-55.203125 55.4375-55.203125 30.527344 0 55.308594 24.675781 55.4375 55.203125 0 4.417969 3.582031 8 8 8s8-3.582031 8-8c-.148437-39.351563-32.085937-71.171875-71.4375-71.171875-39.347656 0-71.289063 31.820312-71.4375 71.171875 0 4.417969 3.582031 8 8 8zm0 0" fill="#FFFFFF"/></symbol>
	<symbol id="icon-refresh" xmlns="http://www.w3.org/2000/svg" xmlns:xlink="http://www.w3.org/1999/xlink"><path fill-rule="evenodd" fill="#9D9D9D" d="M23.912,8.276 L21.423,11.852 C21.414,11.864 21.400,11.869 21.391,11.880 C21.349,11.934 21.298,11.977 21.240,12.013 C21.219,12.026 21.202,12.043 21.180,12.054 C21.100,12.092 21.013,12.117 20.919,12.117 C20.815,12.117 20.722,12.085 20.637,12.040 C20.627,12.035 20.616,12.037 20.607,12.032 L16.755,9.750 C16.463,9.577 16.366,9.199 16.539,8.906 C16.712,8.612 17.089,8.515 17.381,8.688 L20.232,10.378 C19.676,5.636 15.651,1.942 10.778,1.942 C5.524,1.942 1.251,6.230 1.251,11.500 C1.251,16.770 5.524,21.057 10.778,21.057 C14.138,21.057 17.286,19.250 18.993,16.341 C19.166,16.047 19.542,15.950 19.835,16.123 C20.127,16.295 20.224,16.673 20.053,16.967 C18.127,20.251 14.572,22.291 10.778,22.291 C4.848,22.291 0.023,17.450 0.023,11.500 C0.023,5.550 4.848,0.709 10.778,0.709 C16.117,0.709 20.548,4.637 21.381,9.761 L22.904,7.571 C23.099,7.292 23.482,7.224 23.760,7.418 C24.038,7.613 24.106,7.997 23.912,8.276 Z"/></symbol>
	<symbol id="icon-x"  x="0px" y="0px" viewBox="0 0 490.4 490.4" style="enable-background:new 0 0 490.4 490.4;" xml:space="preserve"><g><g><path d="M245.2,490.4c135.2,0,245.2-110,245.2-245.2S380.4,0,245.2,0S0,110,0,245.2S110,490.4,245.2,490.4z M245.2,24.5c121.7,0,220.7,99,220.7,220.7s-99,220.7-220.7,220.7s-220.7-99-220.7-220.7S123.5,24.5,245.2,24.5z" fill="#FFFFFF"/><path d="M180.3,310.1c2.4,2.4,5.5,3.6,8.7,3.6s6.3-1.2,8.7-3.6l47.6-47.6l47.6,47.6c2.4,2.4,5.5,3.6,8.7,3.6s6.3-1.2,8.7-3.6c4.8-4.8,4.8-12.5,0-17.3l-47.8-47.6l47.6-47.6c4.8-4.8,4.8-12.5,0-17.3s-12.5-4.8-17.3,0l-47.6,47.6l-47.6-47.6c-4.8-4.8-12.5-4.8-17.3,0s-4.8,12.5,0,17.3l47.6,47.6l-47.6,47.6C175.5,297.6,175.5,305.3,180.3,310.1z" fill="#FFFFFF"/></g></g></symbol>
</svg>
