<svg viewBox="0 0 175 177" fill="none" xmlns="http://www.w3.org/2000/svg">
<path d="M83.054 4.58911C83.8436 -0.488289 91.1564 -0.488289 91.946 4.58911V4.58911C92.6555 9.15106 98.9547 9.81314 100.597 5.49839V5.49839C102.425 0.69611 109.578 2.21654 109.295 7.34715V7.34715C109.04 11.9569 115.064 13.9142 117.568 10.0352V10.0352C120.354 5.71795 127.035 8.69235 125.691 13.6519V13.6519C124.484 18.1081 129.969 21.275 133.225 18.0013V18.0013C136.848 14.3578 142.764 18.6562 140.418 23.228V23.228C138.311 27.3357 143.018 31.5739 146.883 29.0486V29.0486C151.185 26.238 156.078 31.6725 152.833 35.6567V35.6567C149.917 39.2365 153.64 44.3608 157.946 42.6942V42.6942C162.738 40.8393 166.394 47.1724 162.392 50.3949V50.3949C158.796 53.2903 161.372 59.0767 165.93 58.3417V58.3417C171.003 57.5236 173.263 64.4786 168.678 66.7985V66.7985C164.558 68.883 165.875 75.0785 170.486 75.3072V75.3072C175.619 75.5618 176.383 82.8346 171.416 84.1506V84.1506C166.953 85.333 166.953 91.667 171.416 92.8494V92.8494C176.383 94.1654 175.619 101.438 170.486 101.693V101.693C165.875 101.921 164.558 108.117 168.678 110.201V110.201C173.263 112.521 171.003 119.476 165.93 118.658V118.658C161.372 117.923 158.796 123.71 162.392 126.605V126.605C166.394 129.828 162.738 136.161 157.946 134.306V134.306C153.64 132.639 149.917 137.764 152.833 141.343V141.343C156.078 145.328 151.185 150.762 146.883 147.951V147.951C143.018 145.426 138.311 149.664 140.418 153.772V153.772C142.764 158.344 136.848 162.642 133.225 158.999V158.999C129.969 155.725 124.484 158.892 125.691 163.348V163.348C127.035 168.308 120.354 171.282 117.568 166.965V166.965C115.064 163.086 109.04 165.043 109.295 169.653V169.653C109.578 174.783 102.425 176.304 100.597 171.502V171.502C98.9547 167.187 92.6555 167.849 91.946 172.411V172.411C91.1564 177.488 83.8436 177.488 83.054 172.411V172.411C82.3445 167.849 76.0452 167.187 74.4028 171.502V171.502C72.5748 176.304 65.4218 174.783 65.7051 169.653V169.653C65.9596 165.043 59.9356 163.086 57.432 166.965V166.965C54.6455 171.282 47.9649 168.308 49.3087 163.348V163.348C50.5161 158.892 45.0307 155.725 41.7753 158.999V158.999C38.1521 162.642 32.2359 158.344 34.5815 153.772V153.772C36.689 149.664 31.9819 145.426 28.117 147.951V147.951C23.8154 150.762 18.9222 145.328 22.1671 141.343V141.343C25.0826 137.764 21.3595 132.639 17.0541 134.306V134.306C12.2621 136.161 8.60567 129.828 12.608 126.605V126.605C16.2041 123.71 13.6278 117.923 9.0699 118.658V118.658C3.99701 119.476 1.73721 112.521 6.3221 110.201V110.201C10.4415 108.117 9.12463 101.921 4.51352 101.693V101.693C-0.618604 101.438 -1.383 94.1654 3.58405 92.8494V92.8494C8.04685 91.667 8.04685 85.333 3.58405 84.1506V84.1506C-1.383 82.8346 -0.618596 75.5618 4.51353 75.3072V75.3072C9.12464 75.0785 10.4415 68.883 6.32211 66.7985V66.7985C1.73722 64.4786 3.99701 57.5236 9.0699 58.3417V58.3417C13.6278 59.0767 16.2041 53.2903 12.608 50.3949V50.3949C8.60567 47.1724 12.2621 40.8393 17.0541 42.6942V42.6942C21.3595 44.3608 25.0826 39.2365 22.1671 35.6567V35.6567C18.9222 31.6725 23.8154 26.238 28.117 29.0486V29.0486C31.9819 31.5739 36.689 27.3357 34.5815 23.228V23.228C32.2359 18.6562 38.1521 14.3578 41.7753 18.0014V18.0014C45.0307 21.275 50.5161 18.1081 49.3087 13.652V13.652C47.9649 8.69236 54.6455 5.71795 57.432 10.0352V10.0352C59.9356 13.9142 65.9596 11.9569 65.7051 7.34715V7.34715C65.4218 2.21653 72.5748 0.696106 74.4028 5.49838V5.49838C76.0452 9.81314 82.3445 9.15106 83.054 4.58911V4.58911Z" fill="#1375f8"/>
</svg>
