<svg xmlns="http://www.w3.org/2000/svg" xmlns:xlink="http://www.w3.org/1999/xlink"><path fill-rule="evenodd" fill="#9D9D9D" d="M23.912,8.276 L21.423,11.852 C21.414,11.864 21.400,11.869 21.391,11.880 C21.349,11.934 21.298,11.977 21.240,12.013 C21.219,12.026 21.202,12.043 21.180,12.054 C21.100,12.092 21.013,12.117 20.919,12.117 C20.815,12.117 20.722,12.085 20.637,12.040 C20.627,12.035 20.616,12.037 20.607,12.032 L16.755,9.750 C16.463,9.577 16.366,9.199 16.539,8.906 C16.712,8.612 17.089,8.515 17.381,8.688 L20.232,10.378 C19.676,5.636 15.651,1.942 10.778,1.942 C5.524,1.942 1.251,6.230 1.251,11.500 C1.251,16.770 5.524,21.057 10.778,21.057 C14.138,21.057 17.286,19.250 18.993,16.341 C19.166,16.047 19.542,15.950 19.835,16.123 C20.127,16.295 20.224,16.673 20.053,16.967 C18.127,20.251 14.572,22.291 10.778,22.291 C4.848,22.291 0.023,17.450 0.023,11.500 C0.023,5.550 4.848,0.709 10.778,0.709 C16.117,0.709 20.548,4.637 21.381,9.761 L22.904,7.571 C23.099,7.292 23.482,7.224 23.760,7.418 C24.038,7.613 24.106,7.997 23.912,8.276 Z"/></svg>
