<svg xmlns="http://www.w3.org/2000/svg" xmlns:xlink="http://www.w3.org/1999/xlink"><path fill-rule="evenodd" d="M6.010,12.010 C2.701,12.010 0.010,9.319 0.010,6.009 C0.010,2.702 2.701,0.011 6.010,0.011 C9.318,0.011 12.010,2.702 12.010,6.009 C12.010,9.319 9.318,12.010 6.010,12.010 ZM6.010,0.695 C3.080,0.695 0.696,3.079 0.696,6.009 C0.696,8.939 3.080,11.324 6.010,11.324 C8.940,11.324 11.324,8.939 11.324,6.009 C11.324,3.079 8.940,0.695 6.010,0.695 ZM7.850,8.193 C7.762,8.193 7.675,8.160 7.607,8.092 L5.768,6.252 C5.703,6.189 5.667,6.100 5.667,6.009 L5.667,2.117 C5.667,1.927 5.821,1.775 6.010,1.775 C6.200,1.775 6.353,1.927 6.353,2.117 L6.353,5.868 L8.092,7.607 C8.226,7.740 8.226,7.958 8.092,8.092 C8.025,8.160 7.937,8.193 7.850,8.193 Z" fill="#9B9D9D"/></svg>